<svg width="541" height="294" viewBox="0 0 541 294" fill="none" xmlns="http://www.w3.org/2000/svg">
<g clip-path="url(#clip0_17_3007)">
<path d="M455.469 280.715C439.44 280.715 421.157 279.891 400.593 278.969C374.674 277.804 345.299 276.484 312.504 276.484C282.333 276.484 251.533 277.603 221.741 278.688C175.605 280.368 132.032 281.95 95.7004 279.278C54.7642 276.264 28.8319 268.248 14.0857 254.041C4.74052 245.033 0 233.273 0 219.075C0 197.109 0.379429 173.486 3.12912 149.588C6.37066 121.412 12.2963 98.0749 21.2433 78.2474C32.125 54.1288 47.7003 35.359 67.5383 22.4714C90.4821 7.56222 119.881 0 154.915 0C189.949 0 232.885 7.73536 278.192 22.3638C320.5 36.0282 363.928 55.2005 403.783 77.8169C443.604 100.41 477.387 125.039 501.483 149.031C527.336 174.773 541.005 198.995 541.005 219.075C541.005 239.155 536.292 254.135 526.174 263.798C512.145 277.196 488.629 280.715 455.474 280.715H455.469ZM312.504 274.612C345.341 274.612 374.74 275.932 400.677 277.097C463.283 279.91 504.64 281.768 524.872 262.446C534.597 253.161 539.126 239.38 539.126 219.075C539.126 180.642 486.91 127.14 402.855 79.4407C318.528 31.5966 223.521 1.87184 154.915 1.87184C86.3083 1.87184 46.37 27.1042 22.9531 79.0149C1.87372 125.736 1.87372 186.458 1.87372 219.075C1.87372 232.936 6.29571 243.928 15.3879 252.693C29.8016 266.578 55.3638 274.43 95.8409 277.411C132.065 280.074 175.591 278.496 221.675 276.821C251.482 275.736 282.3 274.617 312.504 274.617V274.612Z" fill="white"/>
<path d="M433.645 294C421.129 294 407.291 293.701 391.917 293.368C373.911 292.98 353.506 292.54 331.424 292.54C311.151 292.54 290.062 292.91 269.666 293.27C223.109 294.089 174.968 294.941 135.367 291.3C114.035 289.339 96.7124 286.269 82.4065 281.908C66.2972 276.999 54.3569 270.583 45.9111 262.291C36.3363 252.895 31.4834 240.976 31.4834 226.862C31.4834 184.685 34.1441 136.312 53.8978 97.3168C64.6389 76.1042 79.7037 59.632 98.6751 48.3589C120.363 35.4666 147.874 28.9339 180.44 28.9339C245.116 28.9339 332.385 54.9852 408.191 96.919C444.489 116.999 475.139 139.148 496.818 160.969C508.205 172.429 517.026 183.711 523.027 194.493C529.364 205.888 532.582 216.777 532.582 226.862C532.582 249.867 527.692 265.366 517.195 275.628C507.545 285.062 493.187 290.275 470.637 292.535C459.746 293.63 447.511 293.995 433.655 293.995L433.645 294ZM331.424 290.668C353.525 290.668 373.944 291.108 391.96 291.496C454.598 292.849 495.984 293.743 515.878 274.29C525.992 264.402 530.704 249.333 530.704 226.862C530.704 207.802 518.525 185.471 495.487 162.288C473.93 140.594 443.431 118.557 407.282 98.5616C331.738 56.7681 244.816 30.8104 180.44 30.8104C119.37 30.8104 78.5279 52.842 55.5701 98.1685C35.9991 136.813 33.3571 184.914 33.3571 226.867C33.3571 240.653 37.8915 251.804 47.2227 260.962C62.6294 276.082 91.5175 285.399 135.536 289.442C175.039 293.069 223.123 292.222 269.629 291.403C290.034 291.043 311.127 290.673 331.42 290.673L331.424 290.668Z" fill="white"/>
</g>
<defs>
<clipPath id="clip0_17_3007">
<rect width="541" height="294" fill="white"/>
</clipPath>
</defs>
</svg>
